# xmcd
#
# Track frame offsets: 
#        150
#        15394
#        37361
#        59744
#        85256
#        94100
#        115601
#        124265
#        139847
#        169657
#        187973
#        195942
#        212509
#        230742
#        248519
#        267830
#
# Disc length: 3840 seconds
#
# Revision: 0
# Processed by: cddbd v1.5.1PL2 Copyright (c) Steve Scherf et al.
# Submitted via: ExactAudioCopy v0.95b3
#
DISCID=d90efe10
DTITLE=Der Sandmann - L'America
DYEAR=2005
DGENRE=Alternative
TTITLE0=Dewuschka
TTITLE1=Strom der Zeit
TTITLE2=L'America
TTITLE3=Emilio
TTITLE4=Cafe con Leche
TTITLE5=Havanna
TTITLE6=Polka
TTITLE7=Rosen für Theres
TTITLE8=Die Flut
TTITLE9=Madame Blanche
TTITLE10=Elefanten
TTITLE11=Solo soy un gringo
TTITLE12=Bis der Teppich brennt
TTITLE13=Lupo di Luna
TTITLE14=Mein Bruder
TTITLE15=Circus Sandmann
EXTD=
EXTT0=
EXTT1=
EXTT2=
EXTT3=
EXTT4=
EXTT5=
EXTT6=
EXTT7=
EXTT8=
EXTT9=
EXTT10=
EXTT11=
EXTT12=
EXTT13=
EXTT14=
EXTT15=
PLAYORDER=
